{"title":"The Call 2013 CAM Xvid UnKnOwN","uid":8286427,"size":1066740822,"categoryP":"video","categoryS":"movies","magnet":"?xt=urn:btih:b0cf05a915a79b9dfdc6c4003cf3a658a98f8d04&amp;dn=The+Call+2013+CAM+Xvid+UnKnOwN&amp;tr=udp%3A%2F%2Ftracker.openbittorrent.com%3A80&amp;tr=udp%3A%2F%2Fopen.demonii.com%3A1337&amp;tr=udp%3A%2F%2Ftracker.coppersurfer.tk%3A6969&amp;tr=udp%3A%2F%2Fexodus.desync.com%3A6969","seeders":2,"leechers":0,"uploader":"Gh0stNet","files":5,"time":1363952003,"description":"Encoded By .......:UnKnOwN\nRuntime ..........:1:28\nIMDb URL .........:http://www.imdb.com/title/tt1911644/\nLanguage .........:English\nFile Size ........:996mb\nRelease Date ......... 2013\nSource ......... A frined/B Friend?\nFile Type ......... Single AVI\nPS3 Compatible ....... You still whining about your Ps3\nGenre ......... Horror/Thriller\n\nVideo\nID : 0\nFormat : MPEG-4 Visual\nFormat profile : Advanced Simple@L5\nFormat settings, BVOP : Yes\nFormat settings, QPel : No\nFormat settings, GMC : No warppoints\nFormat settings, Matrix : Custom\nCodec ID : XVID\nCodec ID/Hint : XviD\nDuration : 1h 28mn\nBit rate : 1380kbps\nWidth : 680pixels\nHeight : 384pixels\nDisplay aspect ratio : 16:9\nFrame rate : 29.000fps\nColor space : YUV\nChroma subsampling : 4:2:0\nBit depth : 8 bits\nScan type : Progressive\nBits/(Pixel*Frame) : 0.234\nStream size : 892 MiB (86%)\nWriting library : XviD 1.2.1 (UTC 2008-12-04)\n\nAudio\nID : 1\nFormat : AC3\nFormat/Info : MPEG\nMode extension : CM (complete main)\nCodec ID : 2000\nDuration : 1h 28mn\nBit rate mode : Constant\nBit rate : 128kbps\nChannel(s) : 2channels\nChannel positions : Front: L R,\nSampling rate : 48.0 KHz\nBit depth : 16 bits\nStream size : 302 MiB\nAlignment : Aligned on interleaves\nInterleave, duration : 42 ms (1.00 video frame)\nInterleave, preload duration : 512 ms\n\nSYNOPSIS\nA veteran 911 operator must confront a killer from the past to\nsave a young girl\\'s life.\n\nRELEASE INFO\nMy friend got with your friend,and then his friend showed up\nand out of nowhere her friend came in they all got together and became\nbfff and you don\\'t want to know what happened after\n\nOh and after you add your filters and do whatever it is you do to it\nMake sure to tag it HD CAM,Super HD CAM,Super Duper HD CAM\n\nScreens: &lt;a href=&quot;\nhttp://i.imgur.com/doCsspg.png&quot; rel=&quot;nofollow&quot; target=&quot;_NEW&quot;&gt;\nhttp://i.imgur.com/doCsspg.png&lt;/a&gt; &lt;a href=&quot;\nhttp://i.imgur.com/quWhWCd.png&quot; rel=&quot;nofollow&quot; target=&quot;_NEW&quot;&gt;\nhttp://i.imgur.com/quWhWCd.png&lt;/a&gt; &lt;a href=&quot;\nhttp://i.imgur.com/EydpTRq.png&quot; rel=&quot;nofollow&quot; target=&quot;_NEW&quot;&gt;\nhttp://i.imgur.com/EydpTRq.png&lt;/a&gt;","torrent":{"xt":"urn:btih:b0cf05a915a79b9dfdc6c4003cf3a658a98f8d04","amp;dn":"The+Call+2013+CAM+Xvid+UnKnOwN","amp;tr":["udp%3A%2F%2Ftracker.openbittorrent.com%3A80","udp%3A%2F%2Fopen.demonii.com%3A1337","udp%3A%2F%2Ftracker.coppersurfer.tk%3A6969","udp%3A%2F%2Fexodus.desync.com%3A6969"],"infoHash":"b0cf05a915a79b9dfdc6c4003cf3a658a98f8d04","infoHashBuffer":{"type":"Buffer","data":[176,207,5,169,21,167,155,157,253,198,196,0,60,243,166,88,169,143,141,4]},"announce":[],"urlList":[]}}